<?xml version="1.0" encoding="UTF-8"?>
<!DOCTYPE svg PUBLIC "-//W3C//DTD SVG 1.1//EN" "http://www.w3.org/Graphics/SVG/1.1/DTD/svg11.dtd">
<svg xmlns="http://www.w3.org/2000/svg" version="1.1" width="954px" height="1026px" style="shape-rendering:geometricPrecision; text-rendering:geometricPrecision; image-rendering:optimizeQuality; fill-rule:evenodd; clip-rule:evenodd" xmlns:xlink="http://www.w3.org/1999/xlink">
<g><path style="opacity:0.952" fill="#d6aa7e" d="M 48.5,71.5 C 331.167,71.5 613.833,71.5 896.5,71.5C 904.187,156.995 907.354,242.661 906,328.5C 901.991,434.196 878.325,535.196 835,631.5C 779.681,746.819 698.181,838.985 590.5,908C 553.035,931.901 513.701,952.401 472.5,969.5C 374.432,928.902 289.265,869.902 217,792.5C 131.809,696.103 77.4754,584.103 54,456.5C 43.1256,399.174 37.9589,341.34 38.5,283C 38.9904,212.359 42.3237,141.859 48.5,71.5 Z M 67.5,91.5 C 337.501,91.1667 607.501,91.5 877.5,92.5C 882.29,152.892 885.624,213.392 887.5,274C 887.753,359.478 876.253,443.311 853,525.5C 805.856,682.594 713.356,805.094 575.5,893C 543.07,913.046 509.403,931.046 474.5,947C 359.598,899.605 264.765,826.105 190,726.5C 125.631,635.123 85.2975,533.789 69,422.5C 58.5087,351.812 55.5087,280.812 60,209.5C 61.9478,170.102 64.4478,130.768 67.5,91.5 Z M 747.5,272.5 C 766.927,320.537 786.26,368.703 805.5,417C 786.474,424.06 766.807,427.894 746.5,428.5C 746.171,376.428 746.505,324.428 747.5,272.5 Z M 196.5,273.5 C 197.833,298.991 198.5,324.825 198.5,351C 198.167,376.833 197.833,402.667 197.5,428.5C 179.45,427.214 161.784,423.881 144.5,418.5C 161.548,370.07 178.881,321.736 196.5,273.5 Z M 206.5,273.5 C 207.75,273.577 208.583,274.244 209,275.5C 227.5,322.333 246,369.167 264.5,416C 264.355,416.772 264.022,417.439 263.5,418C 245.017,424.303 226.017,427.803 206.5,428.5C 206.5,376.833 206.5,325.167 206.5,273.5 Z M 736.5,273.5 C 737.5,273.5 738.5,273.5 739.5,273.5C 739.5,325.167 739.5,376.833 739.5,428.5C 720.491,427.665 702.157,423.832 684.5,417C 702.134,369.263 719.468,321.429 736.5,273.5 Z"/></g>
<g><path style="opacity:0.955" fill="#d7aa7f" d="M 200.5,133.5 C 381.167,134.831 561.833,134.831 742.5,133.5C 773.869,135.421 795.702,150.755 808,179.5C 818.022,214.103 808.522,241.936 779.5,263C 772.358,267.324 764.692,270.158 756.5,271.5C 774.647,319.442 793.48,367.109 813,414.5C 815.192,413.601 817.358,412.601 819.5,411.5C 819.833,411.833 820.167,412.167 820.5,412.5C 801.767,451.539 770.767,468.039 727.5,462C 699.403,455.789 679.737,439.456 668.5,413C 668.833,412.5 669.167,412 669.5,411.5C 672.163,413.621 674.996,414.287 678,413.5C 695.167,366.5 712.333,319.5 729.5,272.5C 692.528,262.233 673.528,237.899 672.5,199.5C 684.167,199.5 695.833,199.5 707.5,199.5C 707.597,222.928 719.263,235.928 742.5,238.5C 763.598,236.568 775.265,225.068 777.5,204C 775.88,185.066 765.88,173.4 747.5,169C 564.167,168.333 380.833,168.333 197.5,169C 178.768,172.899 168.768,184.399 167.5,203.5C 169.432,224.598 180.932,236.265 202,238.5C 225.481,236.183 237.314,223.183 237.5,199.5C 248.833,199.5 260.167,199.5 271.5,199.5C 272.151,231.373 258.151,254.206 229.5,268C 224.946,269.741 220.279,271.074 215.5,272C 234.358,319.55 253.358,367.05 272.5,414.5C 275.115,412.721 277.782,412.055 280.5,412.5C 260.306,453.43 227.64,469.596 182.5,461C 156.609,453.107 138.276,436.773 127.5,412C 130.951,412.131 134.118,413.298 137,415.5C 154.111,367.497 171.611,319.663 189.5,272C 153.97,262.967 134.97,240.133 132.5,203.5C 134.007,171.844 149.341,150.011 178.5,138C 185.782,135.521 193.116,134.021 200.5,133.5 Z M 747.5,272.5 C 746.505,324.428 746.171,376.428 746.5,428.5C 766.807,427.894 786.474,424.06 805.5,417C 786.26,368.703 766.927,320.537 747.5,272.5 Z M 196.5,273.5 C 178.881,321.736 161.548,370.07 144.5,418.5C 161.784,423.881 179.45,427.214 197.5,428.5C 197.833,402.667 198.167,376.833 198.5,351C 198.5,324.825 197.833,298.991 196.5,273.5 Z M 206.5,273.5 C 206.5,325.167 206.5,376.833 206.5,428.5C 226.017,427.803 245.017,424.303 263.5,418C 264.022,417.439 264.355,416.772 264.5,416C 246,369.167 227.5,322.333 209,275.5C 208.583,274.244 207.75,273.577 206.5,273.5 Z M 736.5,273.5 C 719.468,321.429 702.134,369.263 684.5,417C 702.157,423.832 720.491,427.665 739.5,428.5C 739.5,376.833 739.5,325.167 739.5,273.5C 738.5,273.5 737.5,273.5 736.5,273.5 Z"/></g>
<g><path style="opacity:0.945" fill="#d7aa7f" d="M 197.5,183.5 C 214.979,182.812 223.146,191.145 222,208.5C 217.647,220.431 209.147,225.264 196.5,223C 183.641,217.447 179.474,207.947 184,194.5C 187.213,189.107 191.713,185.441 197.5,183.5 Z"/></g>
<g><path style="opacity:0.947" fill="#d7aa7f" d="M 737.5,183.5 C 754.979,182.812 763.146,191.145 762,208.5C 756.726,221.719 747.226,226.219 733.5,222C 721.879,214.164 719.379,203.997 726,191.5C 729.15,187.689 732.983,185.023 737.5,183.5 Z"/></g>
<g><path style="opacity:0.98" fill="#d6aa7e" d="M 450.5,202.5 C 465.833,202.5 481.167,202.5 496.5,202.5C 496.5,228.5 496.5,254.5 496.5,280.5C 511.167,280.5 525.833,280.5 540.5,280.5C 540.5,271.833 540.5,263.167 540.5,254.5C 552.833,254.5 565.167,254.5 577.5,254.5C 577.5,275.5 577.5,296.5 577.5,317.5C 550.5,317.5 523.5,317.5 496.5,317.5C 496.667,506.167 496.5,694.834 496,883.5C 488.652,891.015 481.152,898.348 473.5,905.5C 466.209,897.708 458.709,890.041 451,882.5C 450.5,694.167 450.333,505.834 450.5,317.5C 423.5,317.5 396.5,317.5 369.5,317.5C 369.5,296.5 369.5,275.5 369.5,254.5C 381.833,254.5 394.167,254.5 406.5,254.5C 406.5,263.167 406.5,271.833 406.5,280.5C 421.167,280.5 435.833,280.5 450.5,280.5C 450.5,254.5 450.5,228.5 450.5,202.5 Z"/></g>
<g><path style="opacity:0.961" fill="#d6aa7e" d="M 369.5,359.5 C 385.167,359.5 400.833,359.5 416.5,359.5C 416.833,523.835 416.5,688.168 415.5,852.5C 400.479,839.645 385.313,826.978 370,814.5C 369.5,662.834 369.333,511.167 369.5,359.5 Z"/></g>
<g><path style="opacity:0.982" fill="#d6aa7e" d="M 531.5,359.5 C 546.833,359.5 562.167,359.5 577.5,359.5C 577.667,511.167 577.5,662.834 577,814.5C 562,827.5 547,840.5 532,853.5C 531.5,688.834 531.333,524.167 531.5,359.5 Z"/></g>
</svg>
