<?xml version="1.0" encoding="UTF-8"?>
<!DOCTYPE svg PUBLIC "-//W3C//DTD SVG 1.1//EN" "http://www.w3.org/Graphics/SVG/1.1/DTD/svg11.dtd">
<!-- Creator: CorelDRAW X8 -->
<svg xmlns="http://www.w3.org/2000/svg" xml:space="preserve" width="0.695488in" height="0.701031in" version="1.1" style="shape-rendering:geometricPrecision; text-rendering:geometricPrecision; image-rendering:optimizeQuality; fill-rule:evenodd; clip-rule:evenodd"
viewBox="0 0 144 145"
 xmlns:xlink="http://www.w3.org/1999/xlink">
 <defs>
  <style type="text/css">
   <![CDATA[
    .fil0 {fill:#ffffff;fill-rule:nonzero}
   ]]>
  </style>
 </defs>
 <g id="Layer_x0020_1">
  <metadata id="CorelCorpID_0Corel-Layer"/>
  <path class="fil0" d="M93 80c-3,0 -8,9 -10,9 -1,0 -2,0 -2,0 -6,-3 -10,-6 -15,-10 -3,-3 -7,-8 -9,-13 -1,0 -1,-1 -1,-1 0,-2 7,-6 7,-10 0,-1 -5,-14 -6,-15 -1,-3 -1,-4 -4,-4 -1,0 -2,0 -3,0 -2,0 -4,1 -5,2 -5,4 -7,9 -7,15l0 1c0,6 3,13 7,18 8,12 16,22 30,29 4,1 13,5 17,5 6,0 15,-3 17,-8 1,-2 1,-5 1,-7 0,-1 0,-1 0,-2 0,-1 -16,-9 -17,-9zm-20 50c-11,0 -22,-4 -32,-10l-23 7 8 -22c-8,-10 -12,-22 -12,-34 0,-33 27,-59 59,-59 33,0 60,26 60,59 0,32 -27,59 -60,59zm0 -130c-39,0 -70,32 -70,71 0,13 3,25 10,36l-13 38 39 -12c11,6 23,9 34,9 40,0 71,-32 71,-71 0,-39 -31,-71 -71,-71z"/>
 </g>
</svg>
